<svg width="25" height="25" viewBox="0 0 25 25" fill="none" xmlns="http://www.w3.org/2000/svg">
<path d="M22.9163 12.5003H16.6663L14.583 15.6253H10.4163L8.33301 12.5003H2.08301M22.9163 12.5003V18.7503C22.9163 19.3029 22.6968 19.8328 22.3061 20.2235C21.9154 20.6142 21.3855 20.8337 20.833 20.8337H4.16634C3.61381 20.8337 3.0839 20.6142 2.6932 20.2235C2.3025 19.8328 2.08301 19.3029 2.08301 18.7503V12.5003M22.9163 12.5003L19.3226 5.32324C19.1501 4.97615 18.8842 4.68405 18.5548 4.47978C18.2254 4.27552 17.8456 4.1672 17.458 4.16699H7.54134C7.15375 4.1672 6.77391 4.27552 6.44451 4.47978C6.11512 4.68405 5.84923 4.97615 5.67676 5.32324L2.08301 12.5003" stroke="#81848F" stroke-width="2.5" stroke-linecap="round" stroke-linejoin="round"/>
</svg>
